<svg width="127" height="19" viewBox="0 0 127 19" fill="none" xmlns="http://www.w3.org/2000/svg">
<path d="M0.867188 5.64773V3.36364H10.7024V5.64773H7.17401V15H4.40128V5.64773H0.867188ZM13.1399 15H10.1172L14.0433 3.36364H17.7876L21.7138 15H18.6911L15.9581 6.29545H15.8672L13.1399 15ZM12.7365 10.4205H19.0547V12.5568H12.7365V10.4205ZM22.9666 15V3.36364H25.7791V12.7159H30.62V15H22.9666ZM32.076 15V3.36364H40.1896V5.64773H34.8885V8.03409H39.7749V10.3239H34.8885V12.7159H40.1896V15H32.076ZM51.8544 3.36364V15H49.468L44.8374 8.28409H44.7635V15H41.951V3.36364H44.3714L48.951 10.0682H49.0476V3.36364H51.8544ZM53.2422 5.64773V3.36364H63.0774V5.64773H59.549V15H56.7763V5.64773H53.2422Z" fill="#FFBE1A"/>
<path d="M67.8885 15V3.36364H72.7408C73.612 3.36364 74.3411 3.48674 74.9283 3.73295C75.5192 3.97917 75.9624 4.32386 76.2578 4.76705C76.5571 5.21023 76.7067 5.72348 76.7067 6.30682C76.7067 6.75 76.6139 7.14583 76.4283 7.49432C76.2427 7.83902 75.987 8.125 75.6612 8.35227C75.3355 8.57955 74.9586 8.73864 74.5305 8.82955V8.94318C75.0002 8.96591 75.4339 9.0928 75.8317 9.32386C76.2332 9.55492 76.5552 9.87689 76.7976 10.2898C77.04 10.6989 77.1612 11.1837 77.1612 11.7443C77.1612 12.3693 77.0021 12.928 76.6839 13.4205C76.3658 13.9091 75.9055 14.2955 75.3033 14.5795C74.701 14.8598 73.9699 15 73.1101 15H67.8885ZM70.701 12.733H72.4396C73.0495 12.733 73.4983 12.6174 73.7862 12.3864C74.0779 12.1553 74.2237 11.8333 74.2237 11.4205C74.2237 11.1212 74.1536 10.8636 74.0135 10.6477C73.8733 10.428 73.6745 10.2595 73.4169 10.142C73.1593 10.0208 72.8506 9.96023 72.4908 9.96023H70.701V12.733ZM70.701 8.14773H72.2578C72.5646 8.14773 72.8374 8.09659 73.076 7.99432C73.3146 7.89205 73.5002 7.74432 73.6328 7.55114C73.7692 7.35795 73.8374 7.125 73.8374 6.85227C73.8374 6.46212 73.6991 6.1553 73.4226 5.93182C73.1461 5.70833 72.773 5.59659 72.3033 5.59659H70.701V8.14773ZM78.5135 15V3.36364H83.3203C84.1915 3.36364 84.9434 3.52083 85.576 3.83523C86.2124 4.14583 86.7029 4.5928 87.0476 5.17614C87.3923 5.75568 87.5646 6.44318 87.5646 7.23864C87.5646 8.04545 87.3885 8.73106 87.0362 9.29545C86.6839 9.85606 86.1839 10.2841 85.5362 10.5795C84.8885 10.8712 84.1214 11.017 83.2351 11.017H80.1953V8.80114H82.7124C83.1366 8.80114 83.4908 8.74621 83.7749 8.63636C84.0627 8.52273 84.2805 8.35227 84.4283 8.125C84.576 7.89394 84.6499 7.59848 84.6499 7.23864C84.6499 6.87879 84.576 6.58144 84.4283 6.34659C84.2805 6.10795 84.0627 5.92992 83.7749 5.8125C83.487 5.69129 83.1328 5.63068 82.7124 5.63068H81.326V15H78.5135ZM85.0646 9.68182L87.9624 15H84.8942L82.0533 9.68182H85.0646ZM91.9197 3.36364V15H89.1072V3.36364H91.9197ZM97.9865 15H93.6854V3.36364H97.9808C99.1664 3.36364 100.187 3.59659 101.043 4.0625C101.903 4.52462 102.566 5.19129 103.032 6.0625C103.498 6.92992 103.731 7.9678 103.731 9.17614C103.731 10.3883 103.498 11.4299 103.032 12.3011C102.57 13.1723 101.909 13.8409 101.049 14.3068C100.189 14.7689 99.1683 15 97.9865 15ZM96.4979 12.6023H97.8786C98.5301 12.6023 99.0812 12.4924 99.532 12.2727C99.9865 12.0492 100.329 11.6875 100.56 11.1875C100.795 10.6837 100.913 10.0133 100.913 9.17614C100.913 8.33902 100.795 7.67235 100.56 7.17614C100.326 6.67614 99.9789 6.31629 99.5206 6.09659C99.0661 5.87311 98.5054 5.76136 97.8388 5.76136H96.4979V12.6023ZM113.009 7.16477C112.945 6.92614 112.85 6.71591 112.725 6.53409C112.6 6.34848 112.447 6.19129 112.265 6.0625C112.083 5.93371 111.875 5.83712 111.64 5.77273C111.405 5.70455 111.147 5.67045 110.867 5.67045C110.303 5.67045 109.814 5.80682 109.401 6.07955C108.992 6.35227 108.676 6.75 108.452 7.27273C108.229 7.79167 108.117 8.42235 108.117 9.16477C108.117 9.91098 108.225 10.5473 108.441 11.0739C108.657 11.6004 108.969 12.0019 109.379 12.2784C109.788 12.5549 110.284 12.6932 110.867 12.6932C111.382 12.6932 111.818 12.6098 112.174 12.4432C112.534 12.2727 112.807 12.0322 112.992 11.7216C113.178 11.411 113.271 11.0455 113.271 10.625L113.793 10.6875H110.964V8.63636H115.981V10.1761C115.981 11.2178 115.759 12.1098 115.316 12.8523C114.877 13.5947 114.271 14.1648 113.498 14.5625C112.729 14.9602 111.844 15.1591 110.844 15.1591C109.735 15.1591 108.759 14.9186 107.918 14.4375C107.077 13.9564 106.422 13.2708 105.952 12.3807C105.483 11.4867 105.248 10.4261 105.248 9.19886C105.248 8.24432 105.39 7.39773 105.674 6.65909C105.958 5.91667 106.354 5.28788 106.862 4.77273C107.373 4.25758 107.964 3.86742 108.634 3.60227C109.308 3.33712 110.034 3.20455 110.81 3.20455C111.485 3.20455 112.112 3.30114 112.691 3.49432C113.274 3.6875 113.79 3.96023 114.237 4.3125C114.687 4.66477 115.053 5.08333 115.333 5.56818C115.613 6.05303 115.788 6.58523 115.856 7.16477H113.009ZM117.638 15V3.36364H125.752V5.64773H120.451V8.03409H125.337V10.3239H120.451V12.7159H125.752V15H117.638Z" fill="#110F36"/>
</svg>
